<?xml version="1.0" standalone="no"?>
<!DOCTYPE svg PUBLIC "-//W3C//DTD SVG 20010904//EN"
 "http://www.w3.org/TR/2001/REC-SVG-20010904/DTD/svg10.dtd">
<svg version="1.0" xmlns="http://www.w3.org/2000/svg"
 width="100.000000pt" height="100.000000pt" viewBox="0 0 100.000000 100.000000"
 preserveAspectRatio="xMidYMid meet">
<metadata>
Created by potrace 1.11, written by Peter Selinger 2001-2013
</metadata>
<g transform="translate(0.000000,100.000000) scale(0.100000,-0.100000)"
fill="#000000" stroke="none">
<path d="M424 982 c-7 -4 28 -8 77 -9 137 -2 235 -42 326 -133 27 -27 62 -72
77 -101 l28 -51 -23 -49 c-12 -27 -26 -49 -30 -49 -4 0 -19 25 -33 56 -14 30
-35 68 -46 84 l-20 28 20 35 c14 23 17 38 10 42 -5 3 -10 0 -10 -7 0 -8 -6
-23 -14 -33 -13 -18 -17 -16 -72 39 -82 81 -166 120 -264 122 -41 1 -84 -2
-95 -6 -19 -8 -19 -9 3 -9 13 -1 33 -6 45 -12 32 -17 97 -69 97 -78 0 -9 -92
-61 -106 -61 -5 0 -22 27 -38 60 -40 82 -52 76 -16 -7 l29 -68 -47 -22 c-26
-13 -53 -23 -60 -23 -18 0 -14 117 6 148 13 20 13 22 -4 22 -16 0 -17 2 -4 10
8 5 11 10 5 10 -19 0 -111 -70 -146 -113 -134 -160 -156 -392 -53 -564 46 -75
85 -117 158 -164 112 -73 256 -97 381 -63 42 11 43 12 10 7 -22 -4 -75 -7
-117 -8 -158 -5 -320 80 -405 212 -34 54 -38 64 -26 62 22 -4 36 4 66 36 l34
36 31 -51 c18 -28 32 -53 32 -54 0 -8 -104 15 -116 25 -10 8 -14 8 -14 1 0
-17 33 -31 91 -38 40 -5 58 -13 73 -31 31 -40 68 -73 115 -104 40 -26 42 -29
20 -30 -22 0 -22 -1 -4 -8 11 -5 25 -6 31 -4 7 2 36 -3 67 -12 84 -24 189 -16
256 21 32 17 56 37 57 47 1 10 10 27 18 36 21 24 80 143 77 156 -1 5 -3 48 -3
94 0 46 -4 97 -9 114 -7 25 -3 41 21 90 l29 58 15 -53 c23 -81 25 -195 4 -182
-9 5 -9 2 1 -9 7 -9 9 -17 3 -17 -5 0 -15 -14 -21 -30 -6 -18 -6 -28 -1 -25 6
4 10 12 10 20 0 8 4 16 10 20 14 9 -27 -102 -55 -149 -13 -23 -40 -59 -59 -81
-44 -49 -39 -60 7 -14 193 196 195 503 3 693 -67 66 -139 108 -226 131 -58 15
-187 20 -206 7z m145 -67 c28 -14 51 -27 51 -29 0 -2 -16 -16 -36 -31 -40 -30
-69 -22 -34 10 11 10 20 23 20 28 0 6 -11 0 -24 -13 -24 -22 -26 -22 -43 -4
-10 9 -38 31 -63 47 l-45 29 62 -6 c37 -3 82 -15 112 -31z m-316 -21 c3 -4 1
-16 -5 -28 -6 -11 -14 -50 -17 -85 -6 -63 -7 -65 -40 -73 -18 -5 -35 -7 -38
-5 -7 8 29 90 59 135 16 23 25 42 21 42 -13 0 -71 -91 -89 -140 -12 -32 -17
-76 -17 -152 0 -107 -1 -108 -24 -108 -14 0 -34 5 -46 12 -20 10 -21 10 -8 -5
8 -11 28 -17 51 -17 32 0 39 -4 44 -26 6 -21 -1 -34 -37 -72 -24 -26 -47 -48
-53 -50 -14 -5 -35 86 -35 158 -1 137 50 260 149 358 63 61 73 68 85 56z m460
-171 c-26 -24 -50 -43 -53 -43 -3 0 -15 16 -28 36 l-23 35 26 56 26 57 50 -50
50 -49 -48 -42z m-183 93 c0 -7 -22 -33 -49 -58 l-50 -46 -15 23 c-15 23 -14
25 42 63 57 38 72 42 72 18z m-139 -95 l17 -29 -59 -58 c-32 -32 -60 -56 -62
-53 -7 9 -27 87 -27 106 0 15 13 26 53 41 28 11 54 20 57 21 3 0 12 -12 21
-28z m392 5 c15 -22 15 -24 -3 -19 -11 3 -41 -7 -67 -22 l-48 -27 50 46 c28
25 51 45 51 46 1 0 9 -11 17 -24z m-282 -38 c-10 -24 -21 -50 -23 -58 -4 -11
-8 -9 -17 9 -12 21 -10 26 20 57 18 19 34 34 35 34 2 0 -5 -19 -15 -42z m120
0 c10 -18 8 -24 -12 -39 -34 -27 -38 -24 -27 21 12 45 22 50 39 18z m-375 -53
c13 -63 10 -80 -11 -71 -8 3 -26 -5 -42 -16 -15 -12 -29 -22 -31 -23 -1 -1 0
-9 4 -18 4 -10 14 -14 32 -11 21 3 23 2 12 -6 -27 -17 -57 -12 -64 13 -8 31
-7 160 2 173 8 13 35 21 67 20 15 -1 22 -13 31 -61z m570 -112 c-25 -25 -51
-43 -57 -41 -14 5 -61 116 -55 127 3 5 24 6 46 4 52 -6 73 9 59 43 -19 51 -7
37 23 -25 l31 -64 -47 -44z m-166 123 c0 -3 -6 -11 -12 -18 -85 -90 -96 -125
-53 -176 25 -30 24 -42 -5 -42 -36 0 -47 115 -14 151 10 11 12 19 6 19 -23 0
-11 20 26 44 36 24 52 31 52 22z m-206 -42 c6 -20 2 -22 -39 -26 -25 -2 -45
-2 -45 0 0 2 14 17 32 33 32 31 41 29 52 -7z m34 -157 c8 -10 22 -15 29 -13 7
3 18 -4 24 -16 10 -18 9 -24 -7 -35 -10 -7 -40 -29 -66 -48 l-47 -34 -25 42
c-25 42 -78 156 -73 158 1 0 34 8 72 18 l70 16 3 -35 c2 -19 11 -43 20 -53z
m398 51 c8 -50 8 -148 -2 -192 -5 -27 -58 -96 -73 -96 -4 0 -7 21 -8 48 -1 26
-10 79 -18 119 l-16 71 48 46 c26 25 51 46 55 46 3 0 10 -19 14 -42z m-496
-209 c0 -7 -129 -34 -134 -28 -2 2 -18 29 -35 60 l-31 55 51 58 52 57 48 -98
c27 -54 49 -101 49 -104z m-194 166 c-8 -8 -17 -15 -20 -15 -3 0 -6 7 -6 15 0
9 9 15 21 15 18 0 19 -2 5 -15z m568 -87 c3 -18 8 -44 11 -57 20 -106 17 -115
-50 -155 -28 -16 -27 -15 5 13 26 22 32 33 24 41 -9 9 -19 8 -42 -4 -23 -12
-32 -13 -39 -3 -12 15 -63 135 -63 147 0 5 15 12 33 15 17 4 48 15 67 25 42
22 46 20 54 -22z m-151 -99 c44 -93 43 -89 6 -89 -91 0 -149 42 -130 93 10 26
53 56 81 56 9 0 27 -25 43 -60z m-236 -38 c-2 -61 44 -100 134 -116 53 -9 55
-22 4 -29 -54 -9 -98 13 -183 89 -59 53 -66 75 -24 76 15 0 36 4 47 9 11 5 21
9 22 9 1 1 1 -17 0 -38z m472 -23 c-6 -13 -22 -37 -35 -54 -13 -17 -21 -34
-18 -37 3 -2 -2 -7 -11 -10 -19 -8 -19 4 0 29 8 10 15 25 15 32 0 10 47 60 58
62 1 0 -3 -10 -9 -22z m-82 -87 c-21 -49 -60 -71 -106 -59 -56 16 -58 20 -15
38 36 15 40 15 52 1 12 -14 13 -14 8 2 -4 12 5 24 32 41 42 27 48 23 29 -23z
m-97 14 c0 -6 -45 -25 -72 -30 -10 -2 -20 0 -23 6 -4 5 6 9 22 10 15 0 37 4
48 9 26 11 25 11 25 5z m-57 -70 l32 -14 -30 0 c-52 -1 -111 11 -91 19 31 11
56 9 89 -5z"/>
<path d="M285 920 c-3 -6 1 -7 9 -4 18 7 21 14 7 14 -6 0 -13 -4 -16 -10z"/>
<path d="M282 104 c10 -10 20 -16 22 -13 3 3 -5 11 -17 18 -21 13 -21 12 -5
-5z"/>
</g>
</svg>
